<?xml version="1.0" encoding="UTF-8"?>
<!DOCTYPE svg PUBLIC "-//W3C//DTD SVG 1.1//EN" "http://www.w3.org/Graphics/SVG/1.1/DTD/svg11.dtd">
<svg width="160mm" height="90mm" viewBox="0 0 16000 9000" version="1.1" xmlns="http://www.w3.org/2000/svg" xmlns:xlink="http://www.w3.org/1999/xlink" stroke-width="28.222" stroke-linejoin="round" xml:space="preserve">
 <path fill="rgb(255,255,255)" stroke="none" d="M 8000,8999 L 0,8999 0,0 15999,0 15999,8999 8000,8999 Z"/>
 <path fill="none" stroke="rgb(179,179,179)" stroke-linejoin="round" d="M 5957,7191 L 320,7191 320,180 11594,180 11594,7191 5957,7191 Z"/>
 <path fill="none" stroke="rgb(179,179,179)" stroke-linejoin="round" d="M 320,7340 L 320,7190"/>
 <path fill="none" stroke="rgb(179,179,179)" stroke-linejoin="round" d="M 320,7340 L 320,7190"/>
 <path fill="none" stroke="rgb(179,179,179)" stroke-linejoin="round" d="M 1345,7340 L 1345,7190"/>
 <path fill="none" stroke="rgb(179,179,179)" stroke-linejoin="round" d="M 1345,7340 L 1345,7190"/>
 <path fill="none" stroke="rgb(179,179,179)" stroke-linejoin="round" d="M 2370,7340 L 2370,7190"/>
 <path fill="none" stroke="rgb(179,179,179)" stroke-linejoin="round" d="M 2370,7340 L 2370,7190"/>
 <path fill="none" stroke="rgb(179,179,179)" stroke-linejoin="round" d="M 3394,7340 L 3394,7190"/>
 <path fill="none" stroke="rgb(179,179,179)" stroke-linejoin="round" d="M 3394,7340 L 3394,7190"/>
 <path fill="none" stroke="rgb(179,179,179)" stroke-linejoin="round" d="M 4420,7340 L 4420,7190"/>
 <path fill="none" stroke="rgb(179,179,179)" stroke-linejoin="round" d="M 4420,7340 L 4420,7190"/>
 <path fill="none" stroke="rgb(179,179,179)" stroke-linejoin="round" d="M 5445,7340 L 5445,7190"/>
 <path fill="none" stroke="rgb(179,179,179)" stroke-linejoin="round" d="M 5445,7340 L 5445,7190"/>
 <path fill="none" stroke="rgb(179,179,179)" stroke-linejoin="round" d="M 6469,7340 L 6469,7190"/>
 <path fill="none" stroke="rgb(179,179,179)" stroke-linejoin="round" d="M 6469,7340 L 6469,7190"/>
 <path fill="none" stroke="rgb(179,179,179)" stroke-linejoin="round" d="M 7495,7340 L 7495,7190"/>
 <path fill="none" stroke="rgb(179,179,179)" stroke-linejoin="round" d="M 7495,7340 L 7495,7190"/>
 <path fill="none" stroke="rgb(179,179,179)" stroke-linejoin="round" d="M 8519,7340 L 8519,7190"/>
 <path fill="none" stroke="rgb(179,179,179)" stroke-linejoin="round" d="M 8519,7340 L 8519,7190"/>
 <path fill="none" stroke="rgb(179,179,179)" stroke-linejoin="round" d="M 9544,7340 L 9544,7190"/>
 <path fill="none" stroke="rgb(179,179,179)" stroke-linejoin="round" d="M 9544,7340 L 9544,7190"/>
 <path fill="none" stroke="rgb(179,179,179)" stroke-linejoin="round" d="M 10569,7340 L 10569,7190"/>
 <path fill="none" stroke="rgb(179,179,179)" stroke-linejoin="round" d="M 10569,7340 L 10569,7190"/>
 <path fill="none" stroke="rgb(179,179,179)" stroke-linejoin="round" d="M 11594,7340 L 11594,7190"/>
 <path fill="none" stroke="rgb(179,179,179)" stroke-linejoin="round" d="M 11594,7340 L 11594,7190"/>
 <path fill="none" stroke="rgb(179,179,179)" stroke-linejoin="round" d="M 320,7190 L 11594,7190"/>
 <path fill="none" stroke="rgb(179,179,179)" stroke-linejoin="round" d="M 170,7190 L 320,7190"/>
 <path fill="none" stroke="rgb(179,179,179)" stroke-linejoin="round" d="M 170,7190 L 320,7190"/>
 <path fill="none" stroke="rgb(179,179,179)" stroke-linejoin="round" d="M 170,6488 L 320,6488"/>
 <path fill="none" stroke="rgb(179,179,179)" stroke-linejoin="round" d="M 170,6488 L 320,6488"/>
 <path fill="none" stroke="rgb(179,179,179)" stroke-linejoin="round" d="M 170,5787 L 320,5787"/>
 <path fill="none" stroke="rgb(179,179,179)" stroke-linejoin="round" d="M 170,5787 L 320,5787"/>
 <path fill="none" stroke="rgb(179,179,179)" stroke-linejoin="round" d="M 170,5086 L 320,5086"/>
 <path fill="none" stroke="rgb(179,179,179)" stroke-linejoin="round" d="M 170,5086 L 320,5086"/>
 <path fill="none" stroke="rgb(179,179,179)" stroke-linejoin="round" d="M 170,4386 L 320,4386"/>
 <path fill="none" stroke="rgb(179,179,179)" stroke-linejoin="round" d="M 170,4386 L 320,4386"/>
 <path fill="none" stroke="rgb(179,179,179)" stroke-linejoin="round" d="M 170,3685 L 320,3685"/>
 <path fill="none" stroke="rgb(179,179,179)" stroke-linejoin="round" d="M 170,3685 L 320,3685"/>
 <path fill="none" stroke="rgb(179,179,179)" stroke-linejoin="round" d="M 170,2983 L 320,2983"/>
 <path fill="none" stroke="rgb(179,179,179)" stroke-linejoin="round" d="M 170,2983 L 320,2983"/>
 <path fill="none" stroke="rgb(179,179,179)" stroke-linejoin="round" d="M 170,2282 L 320,2282"/>
 <path fill="none" stroke="rgb(179,179,179)" stroke-linejoin="round" d="M 170,2282 L 320,2282"/>
 <path fill="none" stroke="rgb(179,179,179)" stroke-linejoin="round" d="M 170,1581 L 320,1581"/>
 <path fill="none" stroke="rgb(179,179,179)" stroke-linejoin="round" d="M 170,1581 L 320,1581"/>
 <path fill="none" stroke="rgb(179,179,179)" stroke-linejoin="round" d="M 170,880 L 320,880"/>
 <path fill="none" stroke="rgb(179,179,179)" stroke-linejoin="round" d="M 170,880 L 320,880"/>
 <path fill="none" stroke="rgb(179,179,179)" stroke-linejoin="round" d="M 170,179 L 320,179"/>
 <path fill="none" stroke="rgb(179,179,179)" stroke-linejoin="round" d="M 170,179 L 320,179"/>
 <path fill="none" stroke="rgb(179,179,179)" stroke-linejoin="round" d="M 320,7190 L 320,179"/>
 <path fill="none" stroke="rgb(255,66,14)" stroke-width="80" stroke-linejoin="round" d="M 320,7186 L 371,7185 422,7184 473,7183 525,7183 576,7182 627,7181 678,7180 730,7179 781,7178 832,7177 883,7176 935,7174 986,7173 1037,7172 1088,7170 1140,7169 1191,7167 1242,7165 1293,7163 1345,7161 1396,7159 1447,7157 1498,7155 1550,7152 1601,7150 1652,7147 1703,7144 1755,7141 1806,7138 1857,7135 1908,7132 1960,7128 2011,7124 2062,7121 2113,7117 2165,7113 2216,7108 2267,7104 2318,7100 2370,7095 2421,7090 2472,7085 2523,7080 2575,7075 2626,7069 2677,7063 2728,7058 2780,7052 2831,7045 2882,7039 2933,7033 2985,7026 3036,7019 3087,7012 3138,7005 3190,6997 3241,6989 3292,6982 3343,6973 3395,6965 3446,6957 3497,6948 3548,6939 3600,6930 3651,6920 3702,6911 3753,6901 3805,6891 3856,6881 3907,6870 3958,6859 4010,6848 4061,6837 4112,6826 4163,6814 4215,6802 4266,6790 4317,6777 4368,6764 4420,6751 4471,6738 4522,6724 4573,6711 4625,6697 4676,6682 4727,6668 4778,6653 4830,6637 4881,6622 4932,6606 4983,6590 5035,6574 5086,6557 5137,6540 5188,6523 5240,6505 5291,6488 5342,6469 5393,6451 5445,6432 5496,6413 5547,6394 5598,6374 5650,6354 5701,6334 5752,6313 5803,6292 5855,6270 5906,6249 5957,6227 6008,6204 6060,6182 6111,6158 6162,6135 6213,6111 6265,6087 6316,6063 6367,6038 6418,6013 6470,5987 6521,5961 6572,5935 6623,5908 6675,5881 6726,5853 6777,5826 6828,5797 6880,5769 6931,5740 6982,5710 7033,5681 7085,5650 7136,5620 7187,5589 7238,5557 7290,5526 7341,5493 7392,5461 7443,5428 7495,5394 7546,5361 7597,5326 7648,5292 7700,5256 7751,5221 7802,5185 7853,5149 7905,5112 7956,5074 8006,5037 8057,4998 8109,4960 8160,4921 8211,4881 8262,4841 8314,4800 8365,4759 8416,4718 8467,4676 8519,4634 8570,4591 8621,4547 8672,4503 8724,4460 8775,4415 8826,4370 8877,4324 8929,4278 8980,4231 9031,4184 9082,4136 9134,4088 9185,4039 9236,3990 9287,3940 9339,3890 9390,3839 9441,3788 9492,3737 9544,3685 9595,3632 9646,3579 9697,3525 9749,3471 9800,3417 9851,3361 9902,3306 9954,3249 10005,3192 10056,3135 10107,3077 10159,3018 10210,2959 10261,2899 10312,2838 10364,2777 10415,2715 10466,2652 10517,2588 10569,2524 10620,2459 10671,2393 10722,2327 10774,2260 10825,2192 10876,2124 10927,2056 10979,1986 11030,1917 11081,1847 11132,1776 11184,1706 11235,1635 11286,1563 11337,1492 11389,1420 11440,1348 11491,1276 11542,1204 11594,1132"/>
 <path fill="none" stroke="rgb(255,211,32)" stroke-width="80" stroke-linejoin="round" d="M 320,7102 L 371,7097 422,7093 473,7089 525,7084 576,7080 627,7076 678,7071 730,7067 781,7062 832,7058 883,7054 935,7049 986,7045 1037,7040 1088,7036 1140,7032 1191,7027 1242,7023 1293,7019 1345,7014 1396,7010 1447,7005 1498,7001 1550,6997 1601,6992 1652,6988 1703,6984 1755,6979 1806,6975 1857,6970 1908,6966 1960,6962 2011,6957 2062,6953 2113,6948 2165,6944 2216,6940 2267,6935 2318,6931 2370,6927 2421,6922 2472,6918 2523,6913 2575,6909 2626,6905 2677,6900 2728,6896 2780,6891 2831,6887 2882,6883 2933,6878 2985,6874 3036,6870 3087,6865 3138,6861 3190,6856 3241,6852 3292,6848 3343,6843 3395,6839 3446,6835 3497,6830 3548,6826 3600,6821 3651,6817 3702,6813 3753,6808 3805,6804 3856,6799 3907,6795 3958,6791 4010,6786 4061,6782 4112,6778 4163,6773 4215,6769 4266,6764 4317,6760 4368,6756 4420,6751 4471,6747 4522,6742 4573,6738 4625,6734 4676,6729 4727,6725 4778,6721 4830,6716 4881,6712 4932,6707 4983,6703 5035,6699 5086,6694 5137,6690 5188,6686 5240,6681 5291,6677 5342,6672 5393,6668 5445,6664 5496,6659 5547,6655 5598,6650 5650,6646 5701,6642 5752,6637 5803,6633 5855,6629 5906,6624 5957,6620 6008,6615 6060,6611 6111,6607 6162,6602 6213,6598 6265,6593 6316,6589 6367,6585 6418,6580 6470,6576 6521,6572 6572,6567 6623,6563 6675,6558 6726,6554 6777,6550 6828,6545 6880,6541 6931,6537 6982,6532 7033,6528 7085,6523 7136,6519 7187,6515 7238,6510 7290,6506 7341,6501 7392,6497 7443,6493 7495,6488 7546,6484 7597,6480 7648,6475 7700,6471 7751,6466 7802,6462 7853,6458 7905,6453 7956,6449 8006,6444 8057,6440 8109,6436 8160,6431 8211,6427 8262,6423 8314,6418 8365,6414 8416,6409 8467,6405 8519,6401 8570,6396 8621,6392 8672,6388 8724,6383 8775,6379 8826,6374 8877,6370 8929,6366 8980,6361 9031,6357 9082,6352 9134,6348 9185,6344 9236,6339 9287,6335 9339,6331 9390,6326 9441,6322 9492,6317 9544,6313 9595,6309 9646,6304 9697,6300 9749,6295 9800,6291 9851,6287 9902,6282 9954,6278 10005,6274 10056,6269 10107,6265 10159,6260 10210,6256 10261,6252 10312,6247 10364,6243 10415,6238 10466,6234 10517,6230 10569,6225 10620,6221 10671,6217 10722,6212 10774,6208 10825,6203 10876,6199 10927,6195 10979,6190 11030,6186 11081,6182 11132,6177 11184,6173 11235,6168 11286,6164 11337,6160 11389,6155 11440,6151 11491,6146 11542,6142 11594,6138"/>
 <text class="TextShape"><tspan class="TextParagraph" font-family="Liberation Sans, sans-serif" font-size="353px" font-weight="400"><tspan class="TextPosition" x="227" y="7758"><tspan fill="rgb(0,0,0)" stroke="none">1</tspan></tspan></tspan></text>
 <text class="TextShape"><tspan class="TextParagraph" font-family="Liberation Sans, sans-serif" font-size="353px" font-weight="400"><tspan class="TextPosition" x="1252" y="7758"><tspan fill="rgb(0,0,0)" stroke="none">2</tspan></tspan></tspan></text>
 <text class="TextShape"><tspan class="TextParagraph" font-family="Liberation Sans, sans-serif" font-size="353px" font-weight="400"><tspan class="TextPosition" x="2277" y="7758"><tspan fill="rgb(0,0,0)" stroke="none">3</tspan></tspan></tspan></text>
 <text class="TextShape"><tspan class="TextParagraph" font-family="Liberation Sans, sans-serif" font-size="353px" font-weight="400"><tspan class="TextPosition" x="3301" y="7758"><tspan fill="rgb(0,0,0)" stroke="none">4</tspan></tspan></tspan></text>
 <text class="TextShape"><tspan class="TextParagraph" font-family="Liberation Sans, sans-serif" font-size="353px" font-weight="400"><tspan class="TextPosition" x="4327" y="7758"><tspan fill="rgb(0,0,0)" stroke="none">5</tspan></tspan></tspan></text>
 <text class="TextShape"><tspan class="TextParagraph" font-family="Liberation Sans, sans-serif" font-size="353px" font-weight="400"><tspan class="TextPosition" x="5352" y="7758"><tspan fill="rgb(0,0,0)" stroke="none">6</tspan></tspan></tspan></text>
 <text class="TextShape"><tspan class="TextParagraph" font-family="Liberation Sans, sans-serif" font-size="353px" font-weight="400"><tspan class="TextPosition" x="6376" y="7758"><tspan fill="rgb(0,0,0)" stroke="none">7</tspan></tspan></tspan></text>
 <text class="TextShape"><tspan class="TextParagraph" font-family="Liberation Sans, sans-serif" font-size="353px" font-weight="400"><tspan class="TextPosition" x="7402" y="7758"><tspan fill="rgb(0,0,0)" stroke="none">8</tspan></tspan></tspan></text>
 <text class="TextShape"><tspan class="TextParagraph" font-family="Liberation Sans, sans-serif" font-size="353px" font-weight="400"><tspan class="TextPosition" x="8427" y="7758"><tspan fill="rgb(0,0,0)" stroke="none">9</tspan></tspan></tspan></text>
 <text class="TextShape"><tspan class="TextParagraph" font-family="Liberation Sans, sans-serif" font-size="353px" font-weight="400"><tspan class="TextPosition" x="9360" y="7758"><tspan fill="rgb(0,0,0)" stroke="none">10</tspan></tspan></tspan></text>
 <text class="TextShape"><tspan class="TextParagraph" font-family="Liberation Sans, sans-serif" font-size="353px" font-weight="400"><tspan class="TextPosition" x="10385" y="7758"><tspan fill="rgb(0,0,0)" stroke="none">11</tspan></tspan></tspan></text>
 <text class="TextShape"><tspan class="TextParagraph" font-family="Liberation Sans, sans-serif" font-size="353px" font-weight="400"><tspan class="TextPosition" x="11410" y="7758"><tspan fill="rgb(0,0,0)" stroke="none">12</tspan></tspan></tspan></text>
 <path fill="none" stroke="rgb(255,66,14)" stroke-width="80" stroke-linejoin="round" d="M 12310,4250 L 13110,4250"/>
 <path fill="none" stroke="rgb(255,211,32)" stroke-width="80" stroke-linejoin="round" d="M 12310,4747 L 13110,4747"/>
 <text class="TextShape"><tspan class="TextParagraph" font-family="Liberation Sans, sans-serif" font-size="353px" font-weight="400"><tspan class="TextPosition" x="13210" y="4370"><tspan fill="rgb(0,0,0)" stroke="none">Difficulty</tspan></tspan></tspan></text>
 <text class="TextShape"><tspan class="TextParagraph" font-family="Liberation Sans, sans-serif" font-size="353px" font-weight="400"><tspan class="TextPosition" x="13210" y="4867"><tspan fill="rgb(0,0,0)" stroke="none">Review Backlog</tspan></tspan></tspan></text>
 <text class="TextShape"><tspan class="TextParagraph" font-family="Liberation Sans, sans-serif" font-size="318px" font-weight="400"><tspan class="TextPosition" x="2816" y="8405"><tspan fill="rgb(0,0,0)" stroke="none">Time spent memorizing 1 page / day (months)</tspan></tspan></tspan></text>
</svg>